<?xml version="1.0" standalone="no"?>
<!DOCTYPE svg PUBLIC "-//W3C//DTD SVG 20010904//EN"
 "http://www.w3.org/TR/2001/REC-SVG-20010904/DTD/svg10.dtd">
<svg version="1.0" xmlns="http://www.w3.org/2000/svg"
 width="960.000000pt" height="960.000000pt" viewBox="0 0 960.000000 960.000000"
 preserveAspectRatio="xMidYMid meet">
<metadata>
Created by potrace 1.11, written by Peter Selinger 2001-2013
</metadata>
<g transform="translate(0.000000,960.000000) scale(0.100000,-0.100000)"
fill="#000000" stroke="none">
<path d="M1920 8765 c0 -5 -28 -11 -63 -12 -70 -3 -87 -5 -104 -16 -7 -5 -13
-5 -13 -1 0 3 -7 1 -15 -6 -8 -7 -15 -9 -15 -6 0 9 -45 -23 -77 -54 -13 -11
-23 -17 -23 -13 0 4 -15 -17 -33 -47 -35 -58 -60 -128 -51 -142 3 -4 1 -8 -4
-8 -6 0 -7 -14 -2 -35 4 -19 5 -37 1 -39 -5 -4 -7 -127 -1 -151 1 -5 2 -12 1
-15 -5 -14 -5 -120 0 -120 3 0 3 -20 -1 -45 -4 -24 -3 -50 1 -57 4 -6 5 -16 3
-20 -9 -15 -10 -118 -1 -118 4 0 5 -5 1 -11 -3 -6 -6 -37 -6 -70 0 -39 -4 -56
-11 -52 -6 3 -3 -4 5 -16 11 -16 14 -31 9 -49 -5 -15 -5 -36 -1 -47 4 -11 6
-23 3 -27 -9 -16 -8 -156 1 -151 5 3 6 1 2 -6 -10 -15 -12 -143 -3 -158 4 -6
4 -14 -1 -16 -4 -3 -6 -23 -5 -44 2 -21 3 -58 2 -83 0 -25 0 -55 0 -68 1 -15
-3 -21 -12 -17 -6 4 -4 0 5 -8 10 -8 15 -17 12 -20 -10 -10 -10 -127 0 -127 5
0 4 -6 -1 -12 -10 -14 -10 -135 0 -145 4 -3 2 -11 -3 -18 -6 -7 -6 -23 0 -43
5 -18 6 -30 2 -28 -4 2 -6 -30 -4 -72 1 -43 2 -86 2 -97 0 -11 -1 -60 -3 -110
-1 -49 1 -98 6 -108 4 -9 5 -23 0 -30 -10 -16 -11 -84 -1 -120 4 -16 3 -25 -3
-22 -5 4 -9 1 -9 -4 0 -6 5 -11 11 -11 5 0 7 -5 3 -11 -10 -16 -10 -129 0
-129 5 0 4 -6 -1 -12 -10 -15 -10 -129 1 -146 4 -7 4 -12 -1 -12 -4 0 -8 -13
-8 -30 0 -16 3 -30 7 -30 4 0 5 -6 3 -12 -9 -26 -12 -98 -4 -98 5 0 5 -10 1
-22 -8 -22 -7 -81 2 -104 2 -6 1 -17 -4 -24 -4 -7 -4 -26 0 -41 5 -16 5 -29 1
-29 -9 0 -5 -145 4 -160 3 -5 3 -15 -1 -22 -10 -15 -11 -128 -2 -128 4 0 5 -6
3 -12 -9 -26 -12 -98 -4 -98 5 0 5 -10 1 -22 -8 -22 -7 -81 2 -104 2 -6 1 -17
-4 -24 -4 -7 -4 -26 0 -41 5 -16 5 -29 1 -29 -9 0 -5 -145 4 -160 3 -5 3 -15
-1 -22 -10 -15 -11 -66 -4 -103 4 -17 4 -39 0 -50 -4 -11 -4 -30 1 -41 4 -12
5 -25 1 -28 -9 -9 -9 -76 0 -76 4 0 4 -10 -1 -22 -5 -13 -5 -32 -1 -43 4 -11
6 -23 3 -27 -8 -15 -9 -79 -1 -84 5 -3 6 -10 2 -15 -9 -15 -10 -119 -2 -119 4
0 5 -6 3 -12 -9 -28 -11 -98 -3 -98 5 0 6 -5 2 -11 -10 -16 -10 -129 0 -129 5
0 4 -6 -1 -12 -7 -11 -10 -114 -3 -143 1 -5 1 -12 0 -15 -7 -17 -4 -88 4 -83
5 4 6 1 1 -6 -4 -7 -7 -42 -6 -77 1 -35 2 -71 2 -79 0 -8 0 -44 0 -80 0 -36 0
-72 0 -80 0 -8 0 -44 0 -80 0 -88 0 -78 -4 -185 -1 -52 1 -103 6 -113 4 -9 5
-23 0 -30 -10 -16 -11 -84 -1 -120 4 -16 3 -25 -3 -22 -5 4 -9 1 -9 -4 0 -6 5
-11 11 -11 5 0 7 -5 3 -11 -10 -16 -10 -129 0 -129 5 0 4 -6 -1 -12 -5 -7 -7
-42 -6 -78 4 -76 4 -105 -1 -142 -2 -16 1 -28 6 -28 5 0 6 -5 2 -11 -7 -13 -9
-123 -1 -136 2 -4 1 -17 -3 -28 -4 -11 -3 -30 1 -43 5 -13 6 -21 1 -19 -9 7
-7 -127 3 -143 5 -9 4 -11 -3 -6 -7 4 -12 2 -12 -3 0 -6 5 -11 11 -11 5 0 7
-5 3 -12 -9 -14 -8 -103 1 -118 3 -5 1 -10 -5 -10 -7 0 -9 -8 -4 -22 6 -19 6
-78 1 -148 -1 -14 1 -38 5 -54 4 -16 4 -34 -1 -40 -11 -13 -11 -24 0 -53 4
-12 5 -24 1 -27 -9 -6 -8 -109 2 -124 4 -7 3 -12 -2 -12 -10 0 -9 -61 2 -78 4
-7 2 -20 -3 -30 -6 -11 -8 -22 -5 -25 3 -3 7 -16 9 -29 11 -74 38 -130 88
-182 35 -36 96 -74 132 -83 66 -16 98 -19 173 -18 53 1 82 -2 82 -9 0 -8 2 -8
8 0 9 13 62 14 62 1 0 -5 7 -3 17 4 20 17 16 17 38 -1 11 -8 16 -10 12 -3 -5
8 0 11 13 10 11 -1 20 -6 20 -12 0 -7 3 -7 8 1 9 13 244 13 254 -1 5 -7 8 -7
8 1 0 13 168 13 189 0 9 -6 12 -5 8 1 -8 13 132 11 152 -2 9 -5 12 -4 8 2 -8
12 51 12 70 0 6 -4 14 -3 18 3 3 5 11 10 16 10 6 0 7 -5 3 -12 -5 -7 -3 -8 7
-2 20 12 101 12 118 0 11 -8 13 -8 8 0 -8 14 51 13 72 0 10 -6 12 -5 7 2 -4 7
-2 12 3 12 6 0 11 -6 11 -12 0 -8 3 -9 8 -3 8 12 191 14 210 2 6 -5 18 -5 25
0 17 11 200 12 214 1 7 -6 18 -6 25 -2 18 12 200 13 215 2 7 -6 18 -6 25 -2
18 12 200 13 215 2 7 -6 18 -6 25 -2 7 5 56 9 108 10 73 1 100 -3 115 -15 16
-13 18 -13 8 -1 -10 14 -2 16 67 16 46 -1 76 -4 73 -10 -4 -5 0 -6 8 0 22 13
69 14 69 1 0 -8 3 -9 8 -1 9 13 124 13 134 -1 5 -7 8 -6 8 1 0 6 20 10 45 10
25 0 45 -4 45 -10 0 -7 3 -7 8 0 8 14 54 13 64 -1 5 -7 8 -7 8 0 0 14 160 15
160 1 0 -6 5 -4 10 4 8 13 13 13 31 2 11 -8 19 -10 16 -5 -3 5 19 9 49 9 31 0
54 -4 54 -10 0 -6 5 -4 10 4 8 13 13 13 31 2 11 -8 19 -10 16 -5 -8 13 177 11
185 -2 5 -7 8 -6 8 1 0 14 60 13 60 -1 0 -7 3 -7 8 0 10 14 155 14 164 1 5 -7
8 -6 8 3 0 11 3 11 17 0 9 -8 14 -9 10 -3 -4 8 3 12 21 11 54 0 128 23 166 53
47 36 267 250 258 250 -3 0 3 6 13 14 11 8 23 12 28 9 4 -2 6 0 5 5 -2 5 15
27 37 48 22 22 38 43 37 48 -2 5 6 6 18 3 11 -3 17 -1 14 4 -8 13 167 190 179
182 6 -3 7 -1 3 5 -3 6 5 19 19 30 14 11 25 25 25 31 0 6 3 10 8 9 4 -1 38 29
76 67 38 39 73 69 78 67 4 -1 7 4 6 10 -2 7 3 12 10 10 8 -1 11 1 8 6 -7 12
94 108 109 104 5 -2 7 0 2 4 -9 9 42 64 60 64 7 0 10 6 6 15 -3 9 -2 15 3 13
10 -3 114 102 114 115 0 5 4 6 10 2 5 -3 16 7 24 22 8 15 16 26 19 23 2 -3 23
16 47 42 23 26 46 45 51 42 5 -3 8 -1 7 4 -2 5 23 35 55 66 31 31 54 56 50 56
-4 0 2 6 12 14 11 8 23 12 28 9 4 -2 6 0 5 4 -3 9 63 90 69 86 1 -1 15 9 29
22 15 14 23 25 18 25 -5 0 -2 4 6 10 9 6 20 5 30 -3 13 -10 13 -10 3 4 -11 13
-9 20 10 37 13 12 27 19 31 15 4 -5 6 -3 4 3 -4 13 63 85 74 78 5 -3 7 0 6 8
-2 7 2 12 9 11 7 -2 10 4 6 13 -3 8 -2 14 3 12 5 -1 22 10 38 25 16 15 26 27
22 27 -4 0 15 19 42 42 27 24 59 57 73 75 13 17 26 30 29 29 8 -4 39 32 33 37
-2 3 5 8 16 12 12 3 21 14 21 22 0 9 3 14 6 11 5 -6 17 5 100 93 41 46 84 122
84 153 0 9 5 27 11 38 8 15 8 19 0 14 -8 -5 -8 0 -3 16 10 27 8 120 -2 136 -4
7 -4 12 1 12 10 0 9 52 -1 68 -4 7 -4 12 1 12 10 0 9 52 -2 69 -4 7 -4 16 1
20 10 6 13 121 4 121 -3 0 -4 17 -2 37 7 104 7 119 -1 131 -5 6 -6 12 -1 12
11 0 12 140 1 156 -3 6 -4 14 -1 17 5 5 9 124 4 137 -6 19 -7 40 -1 40 8 0 5
99 -3 107 -3 3 -1 14 5 24 7 13 6 19 -1 19 -6 0 -8 4 -5 10 9 15 12 111 3 116
-4 3 -4 15 0 27 9 27 8 134 -1 144 -4 3 -2 11 3 18 6 7 6 23 0 43 -5 18 -6 30
-2 28 4 -2 6 32 4 77 -2 45 -3 87 -3 92 0 6 1 42 2 80 2 39 0 76 -4 81 -3 6
-3 14 0 18 8 8 7 102 -2 116 -3 6 -3 10 2 10 4 0 8 23 8 50 0 28 -3 50 -8 50
-4 0 -5 5 -1 11 10 16 10 129 0 129 -5 0 -4 6 1 13 7 9 8 78 2 152 0 6 1 29 4
53 3 28 2 40 -5 35 -7 -4 -8 -1 -3 6 6 11 7 48 4 154 0 6 1 40 3 75 2 34 0 62
-4 62 -4 0 -5 6 -3 13 9 25 12 97 4 97 -5 0 -5 10 -1 23 5 12 7 31 6 42 -3 24
-4 72 -4 100 1 21 1 66 1 152 0 29 -2 57 -6 63 -3 5 -3 15 1 22 11 17 11 158
0 151 -5 -4 -6 -1 -1 6 4 7 7 42 6 77 -2 89 -2 81 0 159 2 39 0 76 -4 81 -3 6
-4 14 0 18 6 5 8 95 2 122 -1 5 0 11 1 14 7 17 5 90 -2 90 -5 0 -6 5 -2 11 10
16 10 129 0 129 -5 0 -4 6 1 13 7 10 8 38 2 152 0 12 0 73 1 100 1 26 2 101 1
140 0 17 0 53 0 82 0 29 -2 57 -6 63 -3 5 -3 10 2 10 9 0 9 116 -1 155 -4 15
-3 24 1 22 12 -7 10 67 -2 75 -7 5 -7 8 0 8 11 0 12 111 1 129 -4 6 -3 11 3
11 9 0 8 24 -5 78 -2 13 -1 21 3 19 9 -6 9 136 -1 151 -3 6 -2 13 4 17 6 4 8
11 4 16 -3 5 -7 27 -9 48 -2 22 -14 60 -26 85 -24 52 -111 146 -134 146 -8 0
-15 4 -15 10 0 5 -3 9 -7 9 -5 -1 -10 0 -13 1 -58 22 -145 26 -585 25 -258 -1
-478 3 -487 7 -10 5 -18 5 -18 1 0 -7 -196 -10 -210 -3 -3 1 -9 1 -15 0 -41
-9 -50 -8 -57 3 -6 9 -8 8 -8 -3 0 -13 -1 -13 -10 0 -5 8 -10 10 -10 5 0 -11
-150 -13 -168 -1 -6 3 -13 2 -16 -3 -6 -9 -77 -8 -93 2 -6 4 -13 3 -17 -1 -12
-11 -70 -9 -78 3 -5 7 -8 7 -8 -1 0 -11 -90 -11 -108 0 -6 3 -13 2 -16 -3 -6
-9 -77 -8 -93 2 -6 4 -13 3 -17 -1 -12 -11 -70 -9 -78 3 -5 6 -8 5 -8 -3 0 -9
-5 -10 -19 -3 -10 6 -22 7 -25 3 -10 -10 -146 -9 -146 1 0 5 -6 5 -12 0 -19
-11 -108 -10 -108 2 0 7 -3 7 -8 0 -10 -14 -152 -14 -152 0 0 5 -5 3 -10 -5
-7 -11 -10 -11 -10 -2 0 8 -5 10 -12 5 -17 -10 -48 -11 -75 -1 -12 4 -25 3
-27 -1 -6 -10 -77 -8 -94 3 -6 3 -13 3 -15 -2 -6 -9 -258 -8 -274 1 -6 4 -14
4 -17 -1 -6 -10 -127 -8 -144 2 -6 3 -13 3 -16 -2 -6 -10 -207 -9 -223 1 -7 4
-14 3 -17 -2 -6 -9 -77 -8 -93 2 -6 4 -13 3 -17 -1 -12 -11 -70 -9 -78 3 -5 7
-8 7 -8 -1 0 -11 -90 -11 -108 0 -6 3 -13 2 -16 -3 -6 -9 -77 -8 -93 2 -6 4
-13 3 -17 -1 -12 -11 -76 -9 -76 2 0 7 -3 8 -8 1 -10 -14 -152 -14 -152 0 0 5
-5 3 -10 -5 -7 -11 -10 -11 -10 -2 0 8 -5 10 -12 5 -17 -10 -48 -11 -75 -1
-12 4 -25 3 -27 -1 -6 -10 -77 -8 -94 3 -6 3 -13 3 -15 -2 -6 -8 -376 -9 -392
-1 -9 5 -29 4 -40 -1 -13 -6 -52 -5 -72 2 -12 4 -25 3 -28 -2 -4 -7 -57 -7
-75 0 -3 1 -9 1 -15 0 -5 -2 -212 -4 -460 -4 -299 -1 -452 2 -457 9 -5 6 -8 6
-8 0z"/>
<path d="M1306 6682 c-3 -5 1 -9 9 -9 8 0 12 4 9 9 -3 4 -7 8 -9 8 -2 0 -6 -4
-9 -8z"/>
<path d="M1306 6202 c-3 -5 1 -9 9 -9 8 0 12 4 9 9 -3 4 -7 8 -9 8 -2 0 -6 -4
-9 -8z"/>
<path d="M8265 4200 c-3 -6 1 -7 9 -4 18 7 21 14 7 14 -6 0 -13 -4 -16 -10z"/>
<path d="M8276 3438 c3 -5 10 -6 15 -3 13 9 11 12 -6 12 -8 0 -12 -4 -9 -9z"/>
<path d="M1306 2682 c-3 -5 1 -9 9 -9 8 0 12 4 9 9 -3 4 -7 8 -9 8 -2 0 -6 -4
-9 -8z"/>
<path d="M7546 1722 c-3 -5 1 -9 9 -9 8 0 12 4 9 9 -3 4 -7 8 -9 8 -2 0 -6 -4
-9 -8z"/>
<path d="M6756 1527 c3 -10 9 -15 12 -12 3 3 0 11 -7 18 -10 9 -11 8 -5 -6z"/>
<path d="M6670 881 c0 -6 4 -13 10 -16 6 -3 7 1 4 9 -7 18 -14 21 -14 7z"/>
<path d="M5996 798 c3 -5 10 -6 15 -3 13 9 11 12 -6 12 -8 0 -12 -4 -9 -9z"/>
<path d="M2700 646 c0 -2 8 -10 18 -17 15 -13 16 -12 3 4 -13 16 -21 21 -21
13z"/>
<path d="M5279 633 c-13 -16 -12 -17 4 -4 9 7 17 15 17 17 0 8 -8 3 -21 -13z"/>
<path d="M2115 609 c-4 -6 -5 -12 -2 -15 2 -3 7 2 10 11 7 17 1 20 -8 4z"/>
<path d="M2355 529 c-4 -6 -5 -12 -2 -15 2 -3 7 2 10 11 7 17 1 20 -8 4z"/>
</g>
</svg>
